<?xml version="1.0" encoding="utf-8"?>
<!-- Generator: Adobe Illustrator 16.0.4, SVG Export Plug-In . SVG Version: 6.00 Build 0)  -->
<!DOCTYPE svg PUBLIC "-//W3C//DTD SVG 1.1//EN" "http://www.w3.org/Graphics/SVG/1.1/DTD/svg11.dtd">
<svg version="1.1" id="Layer_1" xmlns="http://www.w3.org/2000/svg" xmlns:xlink="http://www.w3.org/1999/xlink" x="0px" y="0px"
	 width="202px" height="313px" viewBox="0 0 202 313" enable-background="new 0 0 202 313" xml:space="preserve">
<rect fill="#3A3B3B" width="202" height="313"/>
<g>
	<g>
		<g>
			<g>
				<path fill="#FFFFFF" d="M39.217,146.917c4.19,0,9.227,2.047,9.227,8.832c0,6.02-3.771,9.4-9.227,9.4h-9.886v-18.232H39.217z
					 M32.988,161.491h6.229c3.208,0,5.562-1.829,5.562-5.524c0-4.288-2.706-5.376-5.562-5.376h-6.229V161.491z"/>
			</g>
			<g>
				<path fill="#FFFFFF" d="M30.748,207.386c3.163,2.039,6.183,2.781,9.392,2.781c1.829,0,4.916-0.451,4.916-2.496
					c0-1.484-1.61-1.867-2.735-1.896l-5.449-0.173c-4.468-0.104-6.664-2.713-6.664-5.53c0-2.714,2.009-5.593,8.552-5.593
					c4.79,0,7.705,1.829,8.8,2.392l-1.649,3.237c-1.447-0.741-4.085-1.972-7.706-1.972c-1.933,0-4.332,0.421-4.332,2.039
					c0,1.409,2.001,1.762,3.246,1.762l4.744,0.18c4.191,0.106,6.858,1.897,6.858,5.727c0,3.276-2.563,5.989-8.582,5.989
					c-4.925,0-8.553-1.229-11.086-3.178L30.748,207.386z"/>
			</g>
			<g>
				<path fill="#FFFFFF" d="M47.439,243.153v3.651h-6.715v14.563h-3.666v-14.563h-6.724v-3.651H47.439z"/>
			</g>
		</g>
		<g>
			<g>
				<path fill="#FFFFFF" d="M78.928,146.917h4.857l8.942,18.232h-4.16l-1.828-3.838H76.08l-1.837,3.838h-4.145L78.928,146.917z
					 M77.879,157.653h7.031l-3.516-7.175L77.879,157.653z"/>
			</g>
			<g>
				<path fill="#FFFFFF" d="M76.469,195.041v7.923l7.848-7.923h4.677l-6.401,6.476l7.419,11.754h-4.399l-5.705-9.01l-3.44,3.372
					v5.638h-3.657v-18.229H76.469z"/>
			</g>
			<g>
				<path fill="#FFFFFF" d="M83.238,243.153v18.215h-3.65v-18.215H83.238z"/>
			</g>
		</g>
		<g>
			<g>
				<path fill="#FFFFFF" d="M130.632,146.917v3.673h-6.723v14.559h-3.657v-14.559h-6.725v-3.673H130.632z"/>
			</g>
			<g>
				<path fill="#FFFFFF" d="M129.958,195.041v3.657h-12.519v3.313h6.603v3.65h-6.603v3.95h12.946v3.658h-16.611v-18.229H129.958z"/>
			</g>
			<g>
				<path fill="#FFFFFF" d="M129.875,249.232c-1.191-0.98-3.695-2.976-7.247-2.976c-4.506,0-7.151,3.149-7.151,6.102
					c0,2.722,2.331,5.914,7.569,5.914c3.238,0,6.125-1.401,7.639-2.563l1.649,3.374c-2.562,1.903-6.507,2.854-9.317,2.854
					c-6.123,0-11.19-3.342-11.19-9.683c0-6.424,5.906-9.67,10.973-9.67c4.716,0,7.285,2.075,9.22,3.455L129.875,249.232z"/>
			</g>
		</g>
		<g>
			<g>
				<path fill="#FFFFFF" d="M159.152,146.917h4.857l8.941,18.232h-4.159l-1.829-3.838h-10.659l-1.829,3.838h-4.151L159.152,146.917z
					 M158.102,157.653h7.032l-3.516-7.175L158.102,157.653z"/>
			</g>
			<g>
				<path fill="#FFFFFF" d="M163.814,195.041c3.546,0,6.589,1.552,6.589,5.772c0,4.077-2.826,5.875-6.589,5.875h-7.285v6.582h-3.657
					v-18.229H163.814z M156.529,203.023h7.285c1.409,0,2.915-0.172,2.915-2.21c0-1.935-1.611-2.115-2.915-2.115h-7.285V203.023z"/>
			</g>
			<g>
				<path fill="#FFFFFF" d="M152.519,250.373h18.222v3.649h-18.222V250.373z"/>
			</g>
		</g>
	</g>
	<g>
		<path fill="#EDE827" d="M92.27,56.82L69.604,31.646c-0.472-0.524-1.146-0.824-1.851-0.824H30.77
			c-1.199-0.341-2.48,0.215-2.976,1.39c-0.143,0.341-0.19,0.694-0.179,1.041c0,0.022-0.015,0.041-0.015,0.063v82.03
			c0,0.004,0,0.008,0,0.012v0.111c0,1.377,1.116,2.494,2.496,2.494h39.059c0.75,0,1.454-0.335,1.926-0.913l21.647-26.407
			c0.367-0.446,0.57-1.004,0.57-1.582v-0.163c0-0.004,0-0.008,0-0.011V58.917c0-0.024-0.015-0.045-0.015-0.069
			C93.304,58.048,92.918,57.308,92.27,56.82z M32.591,36.94l55.714,23.495v26.849l-55.714,24.237V36.94z M81.259,52.047
			L42.751,35.811h23.892L81.259,52.047z M67.973,112.975H41.758L82.503,95.25L67.973,112.975z"/>
		<path fill="#EDE827" d="M174.334,102.713c-0.003-0.073,0.026-0.144,0.02-0.217V76.223c0-0.947-0.54-1.812-1.387-2.234
			l-13.409-6.663l14.372-19.919c0.689-0.958,0.614-2.266-0.176-3.139L162.3,31.679c-0.475-0.52-1.146-0.816-1.848-0.816h-37.968
			c-0.704,0-1.38,0.298-1.852,0.821l-11.445,12.653c-0.085,0.095-0.113,0.224-0.18,0.331c-0.105,0.162-0.211,0.315-0.276,0.499
			c-0.067,0.175-0.088,0.352-0.109,0.539c-0.013,0.104-0.064,0.197-0.064,0.304v26.577c0,0.946,0.54,1.812,1.387,2.233l13.365,6.637
			l-14.313,19.974c-0.686,0.956-0.612,2.261,0.184,3.131l11.446,12.585c0.471,0.52,1.139,0.815,1.844,0.815h37.968
			c0.705,0,1.375-0.298,1.848-0.82l11.453-12.661c0.12-0.129,0.165-0.294,0.251-0.44c0.034-0.053,0.094-0.075,0.121-0.131
			c0.025-0.051,0.019-0.105,0.04-0.156c0.072-0.172,0.113-0.345,0.143-0.529C174.323,103.053,174.339,102.885,174.334,102.713z
			 M123.594,35.852h35.754l9.351,10.276l-13.671,18.949l-39.93-19.835L123.594,35.852z M113.55,50.04l55.812,27.728v21
			L113.55,71.041V50.04z M159.332,112.975h-35.76l-9.349-10.279l13.606-18.989l40.002,19.87L159.332,112.975z"/>
	</g>
</g>
</svg>

